HIERARCHY
ROOT Hips
{
    OFFSET 0.000000 0.000000 0.000000
    CHANNELS 6 Xposition Yposition Zposition Zrotation Xrotation Yrotation
    JOINT Spine
    {
        OFFSET 0.000001 7.292995 0.000000
        CHANNELS 3 Zrotation Xrotation Yrotation
        JOINT Spine1
        {
            OFFSET -0.000000 20.255388 0.000001
            CHANNELS 3 Zrotation Xrotation Yrotation
            JOINT Neck
            {
                OFFSET 0.000001 20.786594 0.000000
                CHANNELS 3 Zrotation Xrotation Yrotation
                JOINT Head
                {
                    OFFSET 0.000003 12.530788 1.776080
                    CHANNELS 3 Zrotation Xrotation Yrotation
                    End Site
                    {
                        OFFSET 0.000000 17.760757 0.000000
                    }
                }
            }
            JOINT LeftShoulder
            {
                OFFSET 3.550532 15.465697 -0.908801
                CHANNELS 3 Zrotation Xrotation Yrotation
                JOINT LeftArm
                {
                    OFFSET 12.513301 -0.000005 0.000001
                    CHANNELS 3 Zrotation Xrotation Yrotation
                    JOINT LeftForeArm
                    {
                        OFFSET 24.225992 0.000005 0.000000
                        CHANNELS 3 Zrotation Xrotation Yrotation
                        JOINT LeftHand
                        {
                            OFFSET 20.711395 -0.000004 0.000000
                            CHANNELS 3 Zrotation Xrotation Yrotation
                            JOINT LeftHandThumb1
                            {
                                OFFSET 2.121964 -2.411326 3.375861
                                CHANNELS 3 Zrotation Xrotation Yrotation
                                JOINT LeftHandThumb2
                                {
                                    OFFSET 2.803212 -0.000001 -0.000002
                                    CHANNELS 3 Zrotation Xrotation Yrotation
                                    JOINT LeftHandThumb3
                                    {
                                        OFFSET 2.395929 0.000000 0.000000
                                        CHANNELS 3 Zrotation Xrotation Yrotation
                                        End Site
                                        {
                                            OFFSET 2.127676 0.000000 0.000000
                                        }
                                    }
                                }
                            }
                            JOINT LeftHandIndex1
                            {
                                OFFSET 8.680776 0.000004 3.375861
                                CHANNELS 3 Zrotation Xrotation Yrotation
                                JOINT LeftHandIndex2
                                {
                                    OFFSET 4.218180 -0.000002 0.000001
                                    CHANNELS 3 Zrotation Xrotation Yrotation
                                    JOINT LeftHandIndex3
                                    {
                                        OFFSET 2.109090 0.000001 -0.000000
                                        CHANNELS 3 Zrotation Xrotation Yrotation
                                        End Site
                                        {
                                            OFFSET 1.872952 0.000000 0.000000
                                        }
                                    }
                                }
                            }
                            JOINT LeftHandMiddle1
                            {
                                OFFSET 8.680775 0.000001 1.118862
                                CHANNELS 3 Zrotation Xrotation Yrotation
                                JOINT LeftHandMiddle2
                                {
                                    OFFSET 4.640000 0.000002 -0.000000
                                    CHANNELS 3 Zrotation Xrotation Yrotation
                                    JOINT LeftHandMiddle3
                                    {
                                        OFFSET 2.530906 0.000005 0.000000
                                        CHANNELS 3 Zrotation Xrotation Yrotation
                                        End Site
                                        {
                                            OFFSET 2.247544 0.000000 0.000000
                                        }
                                    }
                                }
                            }
                            JOINT LeftHandRing1
                            {
                                OFFSET 8.198514 -0.000004 -1.118859
                                CHANNELS 3 Zrotation Xrotation Yrotation
                                JOINT LeftHandRing2
                                {
                                    OFFSET 4.218182 -0.000003 -0.000001
                                    CHANNELS 3 Zrotation Xrotation Yrotation
                                    JOINT LeftHandRing3
                                    {
                                        OFFSET 2.109086 0.000004 0.000001
                                        CHANNELS 3 Zrotation Xrotation Yrotation
                                        End Site
                                        {
                                            OFFSET 1.872952 0.000000 0.000000
                                        }
                                    }
                                }
                            }
                            JOINT LeftHandPinky1
                            {
                                OFFSET 7.716242 0.000005 -3.375859
                                CHANNELS 3 Zrotation Xrotation Yrotation
                                JOINT LeftHandPinky2
                                {
                                    OFFSET 3.374535 0.000004 0.000002
                                    CHANNELS 3 Zrotation Xrotation Yrotation
                                    JOINT LeftHandPinky3
                                    {
                                        OFFSET 1.687275 0.000002 -0.000001
                                        CHANNELS 3 Zrotation Xrotation Yrotation
                                        End Site
                                        {
                                            OFFSET 1.498360 0.000000 0.000000
                                        }
                                    }
                                }
                            }
                        }
                    }
                }
            }
            JOINT RightShoulder
            {
                OFFSET -3.550531 15.465694 -0.908802
                CHANNELS 3 Zrotation Xrotation Yrotation
                JOINT RightArm
                {
                    OFFSET -12.513298 -0.000004 0.000001
                    CHANNELS 3 Zrotation Xrotation Yrotation
                    JOINT RightForeArm
                    {
                        OFFSET -24.225996 -0.000002 -0.000000
                        CHANNELS 3 Zrotation Xrotation Yrotation
                        JOINT RightHand
                        {
                            OFFSET -20.711401 0.000005 0.000001
                            CHANNELS 3 Zrotation Xrotation Yrotation
                            JOINT RightHandThumb1
                            {
                                OFFSET -2.121970 -2.411334 3.375861
                                CHANNELS 3 Zrotation Xrotation Yrotation
                                JOINT RightHandThumb2
                                {
                                    OFFSET -2.803210 0.000003 -0.000004
                                    CHANNELS 3 Zrotation Xrotation Yrotation
                                    JOINT RightHandThumb3
                                    {
                                        OFFSET -2.395930 -0.000001 0.000002
                                        CHANNELS 3 Zrotation Xrotation Yrotation
                                        End Site
                                        {
                                            OFFSET -2.127676 0.000000 0.000000
                                        }
                                    }
                                }
                            }
                            JOINT RightHandIndex1
                            {
                                OFFSET -8.680779 0.000001 3.375860
                                CHANNELS 3 Zrotation Xrotation Yrotation
                                JOINT RightHandIndex2
                                {
                                    OFFSET -4.218180 0.000000 -0.000000
                                    CHANNELS 3 Zrotation Xrotation Yrotation
                                    JOINT RightHandIndex3
                                    {
                                        OFFSET -2.109090 0.000001 -0.000000
                                        CHANNELS 3 Zrotation Xrotation Yrotation
                                        End Site
                                        {
                                            OFFSET -1.872952 0.000000 0.000000
                                        }
                                    }
                                }
                            }
                            JOINT RightHandMiddle1
                            {
                                OFFSET -8.680780 0.000001 1.118860
                                CHANNELS 3 Zrotation Xrotation Yrotation
                                JOINT RightHandMiddle2
                                {
                                    OFFSET -4.640000 -0.000002 0.000001
                                    CHANNELS 3 Zrotation Xrotation Yrotation
                                    JOINT RightHandMiddle3
                                    {
                                        OFFSET -2.530910 0.000001 -0.000000
                                        CHANNELS 3 Zrotation Xrotation Yrotation
                                        End Site
                                        {
                                            OFFSET -2.247544 0.000000 0.000000
                                        }
                                    }
                                }
                            }
                            JOINT RightHandRing1
                            {
                                OFFSET -8.198519 0.000005 -1.118860
                                CHANNELS 3 Zrotation Xrotation Yrotation
                                JOINT RightHandRing2
                                {
                                    OFFSET -4.218180 -0.000006 0.000000
                                    CHANNELS 3 Zrotation Xrotation Yrotation
                                    JOINT RightHandRing3
                                    {
                                        OFFSET -2.109090 0.000001 -0.000000
                                        CHANNELS 3 Zrotation Xrotation Yrotation
                                        End Site
                                        {
                                            OFFSET -1.872952 0.000000 0.000000
                                        }
                                    }
                                }
                            }
                            JOINT RightHandPinky1
                            {
                                OFFSET -7.716248 -0.000002 -3.375859
                                CHANNELS 3 Zrotation Xrotation Yrotation
                                JOINT RightHandPinky2
                                {
                                    OFFSET -3.374540 0.000000 0.000000
                                    CHANNELS 3 Zrotation Xrotation Yrotation
                                    JOINT RightHandPinky3
                                    {
                                        OFFSET -1.687270 0.000004 0.000001
                                        CHANNELS 3 Zrotation Xrotation Yrotation
                                        End Site
                                        {
                                            OFFSET -1.498360 0.000000 0.000000
                                        }
                                    }
                                }
                            }
                        }
                    }
                }
            }
        }
    }
    JOINT LeftUpLeg
    {
        OFFSET 8.880376 -0.000000 -0.000000
        CHANNELS 3 Zrotation Xrotation Yrotation
        JOINT LeftLeg
        {
            OFFSET -0.000001 -40.387405 -0.000001
            CHANNELS 3 Zrotation Xrotation Yrotation
            JOINT LeftFoot
            {
                OFFSET -0.000001 -36.911297 -0.000001
                CHANNELS 3 Zrotation Xrotation Yrotation
                JOINT LeftToeBase
                {
                    OFFSET -0.000002 -5.772240 13.320604
                    CHANNELS 3 Zrotation Xrotation Yrotation
                    End Site
                    {
                        OFFSET 0.000000 0.000000 3.552151
                    }
                }
            }
        }
    }
    JOINT RightUpLeg
    {
        OFFSET -8.880376 0.000000 0.000000
        CHANNELS 3 Zrotation Xrotation Yrotation
        JOINT RightLeg
        {
            OFFSET -0.000001 -40.387390 0.000000
            CHANNELS 3 Zrotation Xrotation Yrotation
            JOINT RightFoot
            {
                OFFSET 0.000002 -36.911297 -0.000001
                CHANNELS 3 Zrotation Xrotation Yrotation
                JOINT RightToeBase
                {
                    OFFSET 0.000001 -5.772238 13.320600
                    CHANNELS 3 Zrotation Xrotation Yrotation
                    End Site
                    {
                        OFFSET 0.000000 0.000000 3.552151
                    }
                }
            }
        }
    }
}
MOTION
Frames: 5
Frame Time: 0.013889
92.879883    75.392319    47.849667    11.032849    3.745249    30.968573    -2.179313    -12.823843    -9.728895    5.119310    15.144594    -10.498058    -4.895387    -6.000974    17.093363    -2.632919    0.552046    17.630991    -5.673768    2.434167    -9.356411    -48.474285    26.193230    -36.661213    -8.329445    -25.471607    -18.800438    23.670494    10.569473    8.799992    24.106419    39.455864    -39.790344    -11.447677    0.198381    23.316662    -0.000000    0.000000    -0.000000    6.022315    17.906971    0.195799    5.729581    0.000002    -0.000004    5.729581    -0.000002    0.000010    5.800509    8.954670    0.120956    5.729578    -0.000001    0.000001    5.729578    0.000000    -0.000003    5.800514    -8.954673    -2.666186    5.729575    -0.000001    -0.000003    5.729580    -0.000001    0.000000    6.022318    -17.906973    -5.286251    5.729574    -0.000004    -0.000003    5.729579    -0.000000    -0.000000    5.806788    3.749222    0.694188    59.679241    -0.422259    -2.682763    7.707501    -30.317383    15.008549    -33.960098    0.812355    0.492208    -31.898245    33.901424    43.162106    17.072428    -2.221935    -23.217251    -0.000000    0.000000    -0.000000    0.023703    17.999956    2.980232    0.022540    0.000001    -0.000000    0.022530    -0.000001    -0.000000    -0.357923    8.999831    1.549769    -0.353511    -0.000000    0.000000    -0.353521    -0.000001    -0.000000    -0.548291    -8.999603    1.856164    -0.541548    0.000000    0.000002    -0.541541    0.000002    -0.000002    -0.767112    -17.998447    3.646829    -0.729575    -0.000000    -0.000000    -0.729565    -0.000003    -0.000003    -17.166517    -7.890597    28.608725    0.000012    41.730648    -0.000017    11.155558    -20.585306    15.338284    -0.000000    -1.096837    0.000006    -8.900999    -39.695919    -14.902985    0.000001    29.646576    -0.000001    6.018514    3.288880    -10.830800    -0.000002    0.496219    -0.000001    
93.112740    75.161423    48.081028    11.134271    3.797374    30.671589    -2.184519    -12.805869    -9.764915    5.163582    15.148746    -10.544588    -4.914280    -5.990669    17.275911    -2.588719    0.648210    17.815872    -5.616093    2.645751    -9.397811    -48.188053    27.957458    -37.207710    -8.481462    -25.341351    -19.208509    23.845037    10.423527    9.087447    23.952007    39.557285    -39.712757    -11.394996    0.221068    23.316494    -0.000000    0.000000    -0.000000    6.022315    17.906971    0.839052    5.729581    0.000001    0.000004    5.729573    0.000001    -0.000003    5.800505    8.954669    0.442579    5.729586    0.000000    0.000008    5.729575    -0.000000    -0.000009    5.800514    -8.954675    -2.839832    5.729580    0.000002    -0.000002    5.729579    -0.000002    -0.000001    6.022312    -17.906979    -5.633555    5.729586    0.000004    -0.000001    5.729570    -0.000005    -0.000006    5.842867    3.902393    0.796351    60.465725    0.733802    -2.607618    7.613622    -30.959435    14.565717    -33.706039    0.891885    -0.539903    -32.099865    33.718231    43.559414    16.946253    -2.167851    -23.222082    -0.000000    0.000000    -0.000000    -1.612130    17.993290    2.684291    -1.533257    0.000000    0.000000    -1.533268    -0.000000    -0.000000    -1.584147    8.996622    1.340871    -1.564662    0.000000    0.000001    -1.564659    0.000000    -0.000000    -1.600050    -8.996553    1.760658    -1.580351    -0.000003    -0.000002    -1.580370    0.000003    0.000002    -1.678141    -17.992737    3.503349    -1.596060    0.000002    0.000002    -1.596059    -0.000002    0.000001    -17.170288    -7.933862    28.967928    0.000004    42.368484    -0.000003    11.045859    -21.114841    15.342198    0.000000    -1.219683    0.000005    -8.267546    -39.731865    -14.817819    -0.000005    28.828997    -0.000001    6.281149    4.025573    -11.102784    -0.000001    0.569848    0.000001    
93.332642    74.939362    48.321751    11.206567    3.843221    30.387478    -2.186855    -12.777879    -9.795804    5.224462    15.168278    -10.591799    -4.881003    -6.008099    17.420925    -2.535421    0.732900    17.961805    -5.533911    2.841995    -9.450906    -47.796787    29.704466    -37.742443    -8.662645    -25.125439    -19.738853    23.670870    10.175487    9.403057    23.871164    39.628239    -39.827950    -11.321651    0.252694    23.316174    -0.000000    0.000000    -0.000000    6.022321    17.906973    1.511551    5.729581    0.000001    0.000003    5.729579    -0.000001    0.000003    5.800517    8.954674    0.778831    5.729578    0.000001    -0.000003    5.729580    0.000001    0.000004    5.800510    -8.954672    -2.999712    5.729586    0.000004    0.000009    5.729575    -0.000002    -0.000002    6.022328    -17.906973    -5.953293    5.729577    -0.000001    -0.000002    5.729576    -0.000000    -0.000002    5.895602    4.068563    0.902022    61.260666    1.975718    -2.529926    7.501800    -31.452223    14.164093    -33.457199    1.183266    -1.706036    -32.301620    33.528053    43.980927    16.819361    -2.113427    -23.226822    -0.000000    0.000000    -0.000000    -3.326813    17.971573    2.370156    -3.164339    -0.000001    0.000000    -3.164335    0.000000    -0.000000    -2.860894    8.988973    1.118680    -2.825734    -0.000000    0.000000    -2.825734    -0.000000    0.000000    -2.689505    -8.990252    1.667702    -2.656438    0.000001    0.000000    -2.656438    0.000003    0.000001    -2.614964    -17.982414    3.368752    -2.487135    -0.000000    -0.000002    -2.487145    0.000002    0.000002    -17.136724    -7.963774    29.330492    0.000005    42.979214    -0.000003    10.984046    -21.633133    15.360922    0.000000    -1.338569    0.000002    -7.642990    -39.740562    -14.715775    -0.000001    28.029276    0.000001    6.551856    4.840744    -11.335343    -0.000003    0.671162    -0.000001    
93.605492    74.670120    48.655090    11.241246    3.905179    30.028360    -2.194726    -12.798005    -9.815509    5.330690    15.202703    -10.639706    -4.804531    -5.966147    17.624947    -2.468362    0.890993    18.159157    -5.392713    3.067300    -9.527555    -47.088196    32.005093    -38.489586    -8.770531    -24.486633    -20.416683    23.011011    10.032415    9.738675    23.868677    39.679260    -40.250259    -11.195973    0.306840    23.315580    -0.000000    0.000000    -0.000000    6.022318    17.906971    2.366726    5.729581    -0.000001    0.000005    5.729578    0.000001    -0.000002    5.800515    8.954670    1.206424    5.729579    0.000001    -0.000004    5.729579    -0.000001    -0.000000    5.800516    -8.954670    -3.195277    5.729579    -0.000001    0.000002    5.729575    -0.000003    -0.000001    6.022320    -17.906971    -6.344439    5.729577    -0.000003    -0.000001    5.729577    -0.000000    -0.000002    5.985627    4.283313    1.016028    62.280731    3.592761    -2.465073    7.366704    -32.011024    13.706769    -33.193974    1.566660    -3.087314    -32.523628    33.298698    44.580864    16.669390    -2.049108    -23.232279    -0.000000    0.000000    -0.000000    -5.687126    17.917032    1.947584    -5.410471    0.000002    -0.000001    -5.410477    -0.000002    0.000001    -4.598228    8.971510    0.814957    -4.541862    -0.000000    0.000001    -4.541862    -0.000000    -0.000001    -4.158574    -8.976698    1.552578    -4.107547    0.000000    -0.000000    -4.107547    0.000001    0.000000    -3.861703    -17.961720    3.212616    -3.673240    -0.000001    -0.000000    -3.673244    0.000005    0.000004    -16.982401    -8.017633    29.891289    -0.000002    43.813496    0.000003    10.835264    -22.297724    15.236928    0.000000    -1.492776    -0.000006    -6.761716    -39.716846    -14.468527    -0.000001    26.994595    -0.000001    6.831333    5.806740    -11.733056    -0.000001    0.776374    -0.000001    
93.911087    74.520424    48.866314    11.375695    3.982023    29.930494    -2.200112    -12.774928    -9.856290    5.419920    15.216664    -10.703576    -4.797590    -5.971313    17.724163    -2.463490    1.017554    18.262243    -5.327622    3.226418    -9.596196    -46.486458    33.680317    -39.118805    -8.770156    -23.729292    -20.975418    22.533102    10.331187    9.963921    23.903124    39.698158    -40.625420    -11.090805    0.352178    23.314962    -0.000000    0.000000    -0.000000    6.022323    17.906981    2.909762    5.729577    -0.000005    0.000003    5.729579    0.000003    -0.000003    5.800515    8.954674    1.477942    5.729577    0.000001    -0.000004    5.729584    -0.000001    0.000006    5.800515    -8.954672    -3.342572    5.729578    0.000000    0.000001    5.729583    0.000001    0.000000    6.022324    -17.906973    -6.639026    5.729578    -0.000001    0.000004    5.729580    -0.000000    -0.000000    5.995113    4.396510    1.027381    62.926453    4.585686    -2.458407    7.385462    -32.618858    13.520650    -33.186573    1.420071    -3.826759    -32.653702    33.154133    44.989143    16.572386    -2.007489    -23.235712    -0.000000    0.000000    -0.000000    -6.022321    17.906973    1.183710    -5.729584    -0.000002    0.000001    -5.729577    0.000002    -0.000001    -5.198535    8.963589    0.475049    -5.134888    -0.000000    0.000002    -5.134878    0.000000    -0.000001    -4.897535    -8.967680    1.527024    -4.837531    -0.000004    -0.000003    -4.837535    0.000002    0.000001    -4.772777    -17.941545    3.111197    -4.540187    -0.000000    0.000003    -4.540185    -0.000001    -0.000000    -17.156578    -7.916193    30.015154    -0.000005    44.180790    0.000007    10.731291    -22.506681    15.133673    -0.000000    -1.589965    -0.000011    -6.577295    -39.615513    -14.753363    -0.000004    26.343187    -0.000002    6.955655    6.394888    -11.908708    -0.000002    0.825665    -0.000001    
